<?xml version="1.0" encoding="utf-8"?>
<!-- Generator: Adobe Illustrator 24.0.1, SVG Export Plug-In . SVG Version: 6.00 Build 0)  -->
<svg version="1.1" id="Layer_1" xmlns="http://www.w3.org/2000/svg" xmlns:xlink="http://www.w3.org/1999/xlink" x="0px" y="0px"
	 viewBox="0 0 402.36 128.39" style="enable-background:new 0 0 402.36 128.39;" xml:space="preserve">
<style type="text/css">
	.st0{fill:#FFFFFF;}
</style>
<g>
	<path class="st0" d="M19.86,81.61l4.88-10.84c0.43-1.16,0.98-2.23,1.41-3.39c-0.98,0.39-1.84,0.65-2.82,0.93
		c-2.17,0.6-4.34,1.31-6.62,1.93C18.78,73.88,19.75,77.73,19.86,81.61 M66.08,48.51c8.03-17.47,16.71-32.78,26.15-46.06
		c1.3-1.64,2.71-2.54,4.01-2.44c1.41-0.03,2.39,0.56,3.15,1.62c0.76,0.95,0.87,2.13,0.33,3.41c-0.11,0.24-0.54,0.85-1.19,1.84
		l-2.28,3.01c-0.65,0.87-1.19,1.62-1.74,2.37c-0.54,0.75-0.98,1.37-1.3,1.75c-2.39,3.68-5.53,9.22-9.55,16.66
		c-3.91,7.31-6.84,12.92-8.57,16.81c1.3-0.23,2.39-0.42,3.47-0.72l2.39-0.42c1.3-0.12,2.28,0.25,2.71,1.37
		c0.54,1.1,0.65,2.38,0.33,3.63c-0.33,1.36-1.08,2.25-2.39,2.7l-3.36,0.59c-1.95,0.24-4.12,0.73-6.29,1.22
		c-0.87,0.26-1.41,0.68-1.84,1.52c-8.57,18.11-16.82,39.1-24.63,62.93c0,0.11,0.22,0.18,0.33,0.38c0.43,0.47,0.98,1.02,1.41,1.81
		c0.43,0.68,0.43,1.55,0.22,2.46c-0.33,0.93-1.41,1.88-3.15,2.83c-1.63,0.72-3.15,0.88-4.56,0.15c-1.3-0.64-2.06-1.81-2.28-3.5
		c-0.11-3.34,1.52-9.38,4.77-18.42c3.36-9.06,6.4-17.08,9.44-24.34c2.93-7.24,5.42-13.43,7.59-18.37c0.87-1.89,1.52-3.41,1.95-4.58
		l-2.71,0.48c-3.15,0.66-6.94,1.44-11.39,2.44c-4.34,0.87-7.59,1.67-9.76,2.27c-0.87,0.26-1.52,0.81-1.85,1.63
		C27.35,82.35,21.05,97.24,16.5,110.2c-0.22,0.58-0.33,1.25-0.65,2.07c-0.22,0.91-0.43,1.7-0.76,2.52c-0.22,0.8-0.54,1.51-0.87,2
		c-0.76,1-1.74,1.5-2.93,1.6c-1.3,0.01-2.28-0.47-3.15-1.29c-0.76-0.95-0.98-2.21-0.54-4.03c0.98-2.78,2.06-6.66,3.25-11.42
		c1.3-4.79,2.17-9.82,2.5-14.98c0.33-5.16-0.33-8.95-1.95-11.59c-0.98-1.13-2.06-1.81-3.15-1.94c-1.08-0.13-2.39-0.01-3.8,0.24
		l-1.19,0.21c-1.41,0.14-2.28-0.47-2.82-1.67c-0.54-1.1-0.54-2.4-0.22-3.76c0.33-1.36,1.08-2.25,2.28-2.79
		c2.93-0.73,7.05-1.68,12.04-2.77c5.75-1.23,10.63-2.42,14.65-3.45c0.54-0.2,0.87-0.37,1.19-0.75c0.22-0.26,0.54-0.64,0.65-0.98
		c6.29-13.37,13.56-26.26,21.7-38.44c1.41-1.98,2.93-2.79,4.34-2.72c1.52,0.06,2.6,0.73,3.26,1.92c0.76,1.28,0.54,2.62-0.43,3.98
		c-6.94,9.47-12.91,19.53-17.9,30.06L40.8,54.7c-0.11,0.02-0.11,0.24-0.11,0.34c-0.11,0.13-0.11,0.24-0.22,0.47l23.33-5.09
		C64.89,50.24,65.65,49.56,66.08,48.51"/>
	<path class="st0" d="M87.27,88.45c-0.21-2.6,1.35-8.53,1.35-8.53s-5.21,6.49-8.19,9.4c-4.3,4.2-7.34,5.49-10.8,5.2
		c-2.55-0.21-5.28-1.33-6.39-3.16c-1.08-1.76-1.25-3.95,0.21-7.18c1.56-3.02,4.37-6.66,8.22-10.82c3.95-4.26,8.11-7.8,12.38-10.61
		c4.26-2.81,7.8-3.74,10.51-2.6c0.36-0.3,0.9-0.72,1.38-1.1c0.58-0.46,1.23-1.02,2.09-1.24c0.71-0.18,2.66,0.36,3.71,0.99
		c0.94,0.62,1.77,1.46,2.39,2.5c0.63,0.94,0.73,1.87,0.31,2.81c-0.42,0.73-0.94,1.77-1.77,3.12c-1.35,2.29-2.71,4.89-4.16,7.7
		c-1.46,2.91-2.39,5.41-2.91,7.7c-0.42,2.18,0.1,3.43,1.77,3.74c2.18,0.1,5.31-0.83,9.15-2.91c3.95-2.08,7.9-4.58,11.96-7.59
		c4.06-2.91,7.28-5.72,9.78-8.32c1.04-1.04,2.08-1.35,3.12-1.14c0.94,0.21,1.56,0.83,1.77,1.98c0.1,1.04-0.52,2.39-1.98,3.95
		c-5.2,5.41-11.86,10.4-19.76,15.19c-7.91,4.79-14.35,6.76-19.35,6.14C89.14,92.71,87.58,91.05,87.27,88.45"/>
	<path class="st0" d="M134.28,60.67c1.25,0.31,2.29,1.04,3.12,2.08c0.73,1.15,0.83,2.18,0.21,3.22c-0.73,1.04-1.46,2.18-2.18,3.12
		c-0.83,1.25-1.56,2.29-2.18,3.12c-0.52,0.94-0.83,1.56-0.83,1.98c1.04-1.04,2.71-2.6,5.2-4.79c2.39-2.18,4.89-4.37,7.38-6.34
		c2.5-2.08,4.37-3.43,5.51-3.95c0.94-0.31,1.98-0.1,3.02,0.52c1.14,0.62,1.98,1.46,2.7,2.6c0.73,1.04,1.04,2.18,0.83,3.22
		c-0.21,0.83-0.62,1.87-1.25,3.23l-2.29,4.37c-1.14,2.18-2.08,4.06-2.81,5.72c-0.83,1.66-0.94,2.7-0.52,2.91
		c1.56,0.42,3.74-0.1,6.66-1.56c2.91-1.46,5.72-3.12,8.43-4.99c2.81-1.87,4.68-3.22,5.83-4.06c0,0,0.1-0.1,0.21-0.1
		c1.14-0.83,2.18-0.94,3.02-0.52c0.83,0.52,1.25,1.25,1.35,2.29c0,1.04-0.52,1.98-1.66,2.91c-4.78,3.75-9.99,7.07-15.81,10.19
		c-5.82,3.02-10.51,3.95-13.94,2.5c-2.08-1.35-2.6-3.54-1.77-6.66c0.83-3.12,1.87-6.03,3.22-8.74c0.52-1.14,0.94-2.08,1.25-2.91
		c0.1-0.73-0.62-0.31-2.39,1.14c-1.66,1.46-3.74,3.54-6.24,6.03l-7.28,7.39c-2.7,2.81-4.58,4.78-5.62,5.83
		c-0.94,0.62-1.98,0.83-3.22,0.42c-1.15-0.42-2.18-1.15-2.91-2.18c-0.73-1.14-0.83-2.39-0.31-3.85c3.22-7.18,7.28-14.77,12.17-22.99
		C131.99,60.78,133.03,60.36,134.28,60.67"/>
	<path class="st0" d="M231.15,5.74c1.56,0,2.5,0.73,2.91,2.18c0.42,1.46-0.21,3.43-1.77,6.03c-4.58,6.87-16.15,23.21-20.63,28.93
		c-0.94,1.25-1.87,2.6-2.91,3.95c-0.52,0.73-1.04,1.35-1.46,2.08c-4.37,8.22-8.95,17.99-13.94,29.44
		c-4.99,11.55-3.53,6.64-5.71,15.37c-0.1,0.62-0.1,1.46-0.1,2.39c0.1,1.14,0.1,1.98,0,2.7c-0.62,1.66-6.24,2.5-7.18,1.04
		c-1.04-1.56-1.04-4.16-0.1-7.7c2.08-6.66,3.53-8.92,5.51-13.5c1.14-2.6,2.5-5.83,4.06-9.57c-0.1,0-0.94,0.83-2.39,2.39
		c-2.5,2.81-5.82,6.14-9.78,10.19c-4.06,4.06-7.49,6.97-10.3,8.74c-2.08,1.14-4.06,1.46-5.83,0.83c-1.77-0.62-2.81-1.87-3.22-3.85
		c-0.31-1.87,0.52-4.37,2.6-7.18c3.02-4.06,7.39-8.32,12.79-12.9c5.51-4.68,11.96-8.63,19.24-12.17c1.87-2.08,3.74-4.26,5.72-6.55
		c1.98-2.39,3.43-4.37,4.37-5.93c4.58-8.94,17.19-27.16,23.64-34.76C228.24,6.36,229.69,5.63,231.15,5.74"/>
	<path class="st0" d="M217.5,51.1c1.25,0.31,2.18,0.94,2.81,1.98c0.73,1.04,0.73,2.08,0,3.22c-2.39,3.33-6.45,10.3-12.07,21.01
		c2.18-3.02,5.31-7.07,9.36-12.28c3.95-5.1,7.39-8.84,9.99-11.23c1.14-0.83,2.18-1.14,3.33-0.83c1.04,0.21,1.87,0.73,2.5,1.56
		c0.73,0.73,0.94,1.56,0.73,2.29c-0.63,2.18-1.66,5.3-3.33,9.57c-1.35,3.54-2.5,6.76-3.43,9.57c-0.52,1.56-0.83,2.6-0.83,3.02
		s0.21,0.42,0.62,0s0.93-1.04,1.66-1.98c0.21-0.42,0.52-0.73,0.83-1.14c1.25-1.66,2.6-3.33,3.85-5.2c2.29-3.02,4.37-5.82,6.45-8.32
		c1.14-1.25,2.29-1.87,3.54-1.87c1.14-0.1,2.18,0.31,3.02,1.04c0.73,0.73,1.04,1.66,0.93,2.81c-0.73,5.82,0.21,9.47,2.91,10.71
		c2.6,1.35,5.93,1.35,9.88,0.21c3.95-1.14,7.49-2.39,10.71-3.85c0.83-0.42,1.66-0.73,2.39-1.04c1.14-0.42,1.98-0.31,2.7,0.31
		c0.73,0.62,1.04,1.35,1.04,2.29c0,0.94-0.42,1.66-1.35,2.29c-5.2,2.91-10.4,4.99-15.6,6.03c-5.1,1.14-9.57,0.83-13.31-0.73
		c-1.66-0.73-3.02-1.87-4.26-3.64c-1.25-1.67-1.98-3.54-2.29-5.41c-0.94,1.04-2.08,2.5-3.43,4.47c-2.18,3.33-4.68,6.45-7.49,9.36
		c-2.7,3.02-5.41,4.26-7.91,3.64c-2.08-0.94-3.12-2.7-2.91-5.3c0.1-2.6,0.62-5.2,1.56-7.8c0.62-1.77,1.14-3.33,1.77-4.89l0.94-2.7
		c0.21-0.73,0.21-0.94,0-0.62c-2.29,2.39-5.2,6.24-8.84,11.34c-3.64,5.2-6.66,9.57-9.05,13.21c-0.42,0.62-0.83,1.14-1.14,1.56
		c-1.46,1.98-2.91,2.81-4.47,2.71c-1.56-0.21-2.91-0.83-3.85-1.98c-1.04-1.04-1.35-2.18-1.04-3.12c3.64-8.94,7.28-16.96,10.92-24.03
		c3.74-7.07,6.66-12.07,8.95-14.98C215.21,51.31,216.25,50.9,217.5,51.1"/>
	<path class="st0" d="M282.72,88.45c-0.21-2.6,0.21-5.41,1.35-8.53c1.04-3.02,2.29-5.72,3.64-7.91c-0.42,0.42-1.04,1.04-1.77,1.98
		c-1.87,2.08-4.37,4.78-7.38,7.9c-3.12,3.12-6.35,5.93-9.67,8.43c-2.91,2.08-5.2,3.02-6.76,2.91c-1.56-0.1-2.7-0.73-3.43-1.87
		c-1.35-1.56-1.25-3.95,0.21-7.18c1.56-3.02,4.37-6.66,8.22-10.82c3.95-4.26,8.11-7.8,12.38-10.61c4.26-2.81,7.8-3.74,10.51-2.6
		c0.42,0.21,0.83,0.21,1.25,0l1.25-0.83c0.52-0.52,1.14-0.94,1.98-1.25c0.73-0.1,1.66,0.1,2.7,0.73c0.94,0.62,1.77,1.46,2.39,2.5
		c0.62,0.94,0.73,1.87,0.31,2.81c-0.42,0.73-0.94,1.77-1.77,3.12c-1.35,2.29-2.71,4.89-4.16,7.7c-1.46,2.91-2.39,5.41-2.91,7.7
		c-0.42,2.18,0.11,3.43,1.77,3.74c2.18,0.1,5.31-0.83,9.15-2.91c3.95-2.08,7.9-4.58,11.96-7.59c4.06-2.91,7.28-5.72,9.78-8.32
		c1.04-1.04,2.08-1.35,3.12-1.14c0.94,0.21,1.56,0.83,1.77,1.98c0.1,1.04-0.52,2.39-1.98,3.95c-5.2,5.41-11.86,10.4-19.76,15.19
		c-7.91,4.79-14.36,6.76-19.35,6.14C284.59,92.71,283.03,91.05,282.72,88.45"/>
	<path class="st0" d="M372.36,15.74c1.56,0,3.19,0.85,3.91,2.18c0.86,1.6,0.79,3.43-0.77,6.03c-4.58,6.87-11.15,13.21-15.63,18.93
		c-0.94,1.25-1.87,2.6-2.91,3.95c-0.52,0.73-1.04,1.35-1.46,2.08c-4.37,8.22-8.95,17.99-13.94,29.44
		c-4.99,11.55-8.53,21.64-10.71,30.37c-0.1,0.62-0.1,1.46-0.1,2.39c0.1,1.14,0.1,1.98,0,2.7c-0.62,1.66-1.77,2.7-3.33,2.91
		c-1.56,0.21-2.91-0.42-3.85-1.87c-1.04-1.56-1.04-4.16-0.1-7.7c2.08-6.66,3.85-11.96,5.41-15.81c1.46-3.95,3.26-8.84,3.26-8.84
		s-1,1-3,3c-4.06,4.06-5.84,4.99-9,6c-3.43,1.1-8,1-10.4-0.26c-1.66-0.87-2.81-1.87-3.22-3.85c-0.31-1.87,0.52-4.37,2.6-7.18
		c3.02-4.06,7.39-8.32,12.8-12.9c5.51-4.68,11.96-8.63,19.24-12.17c1.87-2.08,3.74-4.26,5.72-6.55c1.98-2.39,3.43-4.37,4.37-5.93
		c4.58-8.94,10.19-17.16,16.64-24.76C369.44,16.36,370.9,15.63,372.36,15.74"/>
	<path class="st0" d="M340.99,87.41c0.31-3.22,1.56-6.14,3.54-9.05c4.58-6.76,10.3-12.69,16.95-17.58
		c5.93-4.06,10.3-5.41,13.11-4.37c2.81,1.14,3.54,3.33,2.29,6.55c-1.66,3.12-4.16,5.62-7.59,7.59c-3.43,2.08-6.76,3.75-10.19,5.1
		c-1.56,0.62-3.02,1.35-4.37,1.87c-0.83,0.52-1.77,1.25-2.6,2.18c-0.94,1.04-1.77,2.08-2.39,3.22c-0.73,1.04-1.04,1.98-1.14,2.81
		c-0.11,0.73,0.31,1.04,1.25,1.04c5.3-0.73,12.9-3.43,22.99-8.11c9.99-4.68,18.1-9.15,24.24-13.52c1.46-0.73,2.71-0.73,3.74-0.1
		c1.04,0.52,1.56,1.56,1.56,2.81c-0.1,1.35-1.14,2.7-3.12,4.16c-3.64,2.5-9.05,5.51-16.12,9.26c-6.97,3.64-14.04,6.76-21.22,9.47
		c-7.07,2.6-12.59,3.54-16.54,2.91C342.03,92.61,340.57,90.53,340.99,87.41"/>
</g>
</svg>
