<?xml version="1.0" encoding="utf-8"?>
<!-- Generator: Adobe Illustrator 24.0.1, SVG Export Plug-In . SVG Version: 6.00 Build 0)  -->
<svg version="1.1" id="Layer_1" xmlns="http://www.w3.org/2000/svg" xmlns:xlink="http://www.w3.org/1999/xlink" x="0px" y="0px"
	 viewBox="0 0 70 70" style="enable-background:new 0 0 70 70;" xml:space="preserve">
<style type="text/css">
	.st0{fill:none;stroke:#000000;stroke-linecap:round;stroke-miterlimit:10;}
</style>
<g>
	<g>
		<path d="M61.13,49.37c1.58,0,2.87,1.29,2.87,2.87v9.4c0,1.58-1.29,2.87-2.87,2.87H8.87C7.29,64.51,6,63.22,6,61.64v-9.4
			c0-1.58,1.29-2.87,2.87-2.87H61.13 M61.13,48.37H8.87C6.73,48.37,5,50.1,5,52.24v9.4c0,2.14,1.73,3.87,3.87,3.87h52.27
			c2.14,0,3.87-1.73,3.87-3.87v-9.4C65,50.1,63.27,48.37,61.13,48.37L61.13,48.37z"/>
	</g>
	<path class="st0" d="M34.95,48.37c0-13.58-0.42-25.89-7.64-34.59"/>
	<path class="st0" d="M34.95,48.37c0-11.04,2.33-19.1,8.06-23.35"/>
	<path class="st0" d="M17.94,5.85c-1.56,4.19-0.75,9.16,2.51,12.82s7.1,3.89,11.44,2.82c1.56-4.19,1.76-8.03-1.5-11.69
		S22.28,4.78,17.94,5.85z"/>
	<path class="st0" d="M50.73,17.78c-3.63-1.11-7.8-0.18-10.74,2.77c-2.93,2.95-2.94,6.21-1.82,9.84c3.63,1.11,6.9,1.09,9.83-1.86
		C50.94,25.59,51.85,21.41,50.73,17.78z"/>
</g>
</svg>
