<?xml version="1.0" encoding="utf-8"?>
<!-- Generator: Adobe Illustrator 24.0.1, SVG Export Plug-In . SVG Version: 6.00 Build 0)  -->
<svg version="1.1" id="Layer_1" xmlns="http://www.w3.org/2000/svg" xmlns:xlink="http://www.w3.org/1999/xlink" x="0px" y="0px"
	 viewBox="0 0 70 70" style="enable-background:new 0 0 70 70;" xml:space="preserve">
<style type="text/css">
	.st0{fill:none;stroke:#000000;stroke-miterlimit:10;}
	.st1{fill:none;stroke:#000000;stroke-linecap:round;stroke-linejoin:round;stroke-miterlimit:10;}
</style>
<g>
	<g>
		<path d="M35,6.5c7.05,0,12.79,5.74,12.79,12.79c0,12.3-11.37,19.01-12.78,19.08c-1.48-0.11-12.8-6.77-12.8-19.08
			C22.21,12.24,27.95,6.5,35,6.5 M35,5.5c-7.62,0-13.79,6.17-13.79,13.79c0,12.8,11.93,20.08,13.79,20.08
			c1.99,0,13.79-7.28,13.79-20.08C48.79,11.67,42.62,5.5,35,5.5L35,5.5z"/>
	</g>
	<g>
		<path d="M35,40.01c0.17,0.07,0.39,0.2,0.55,0.33c-0.12,0-0.22,0-0.3,0h-0.12H35h-0.13h-0.12c-0.07,0-0.18,0-0.3,0
			C34.61,40.2,34.83,40.08,35,40.01 M35,38.98c-0.26,0-1.82,0.63-1.82,1.74c0,0.6,0.68,0.63,1.57,0.63c0.08,0,0.17,0,0.25,0
			c0.09,0,0.17,0,0.25,0c0.89,0,1.57-0.03,1.57-0.63C36.82,39.61,35.25,38.98,35,38.98L35,38.98z"/>
	</g>
	<g>
		<path d="M61.13,49.37c1.58,0,2.87,1.29,2.87,2.87v9.4c0,1.58-1.29,2.87-2.87,2.87H8.87C7.29,64.51,6,63.22,6,61.64v-9.4
			c0-1.58,1.29-2.87,2.87-2.87H61.13 M61.13,48.37H8.87C6.73,48.37,5,50.1,5,52.24v9.4c0,2.14,1.73,3.87,3.87,3.87h52.27
			c2.14,0,3.87-1.73,3.87-3.87v-9.4C65,50.1,63.27,48.37,61.13,48.37L61.13,48.37z"/>
	</g>
	<g>
		<line class="st0" x1="35" y1="40.16" x2="35" y2="48.37"/>
	</g>
	<g>
		<line class="st1" x1="33.8" y1="48.37" x2="36.2" y2="65.5"/>
	</g>
	<g>
		<path class="st1" d="M35,48.37c0,0-3.92,0-4.43,0c-0.51,0-0.96-0.21-1.3-0.54c-0.33-0.33-0.54-0.79-0.54-1.3
			c0-0.51,0.21-0.96,0.54-1.3c0.33-0.33,0.79-0.54,1.3-0.54s0.96,0.21,1.3,0.54C32.2,45.57,35,48.37,35,48.37z"/>
		<path class="st1" d="M35,48.37c0,0,3.92,0,4.43,0c0.51,0,0.96-0.21,1.3-0.54c0.33-0.33,0.54-0.79,0.54-1.3
			c0-0.51-0.21-0.96-0.54-1.3c-0.33-0.33-0.79-0.54-1.3-0.54s-0.96,0.21-1.3,0.54C37.8,45.57,35,48.37,35,48.37z"/>
	</g>
</g>
</svg>
