<?xml version="1.0" encoding="utf-8"?>
<!-- Generator: Adobe Illustrator 24.0.1, SVG Export Plug-In . SVG Version: 6.00 Build 0)  -->
<svg version="1.1" id="Layer_1" xmlns="http://www.w3.org/2000/svg" xmlns:xlink="http://www.w3.org/1999/xlink" x="0px" y="0px"
	 viewBox="0 0 100 100" style="enable-background:new 0 0 100 100;" xml:space="preserve">
<style type="text/css">
	.st0{fill:#FFFFFF;}
</style>
<path class="st0" d="M63.51,24.22H36.49c-6.77,0-12.27,5.51-12.27,12.27v27.02c0,6.77,5.51,12.27,12.27,12.27h27.02
	c6.77,0,12.27-5.51,12.27-12.27V36.49C75.78,29.73,70.27,24.22,63.51,24.22z M50,66.05c-8.85,0-16.05-7.2-16.05-16.05
	S41.15,33.95,50,33.95S66.05,41.15,66.05,50S58.85,66.05,50,66.05z M66.49,37.23c-2.07,0-3.75-1.68-3.75-3.75s1.68-3.75,3.75-3.75
	s3.75,1.68,3.75,3.75C70.25,35.55,68.57,37.23,66.49,37.23z M50,39.41c-5.84,0-10.59,4.75-10.59,10.59S44.16,60.59,50,60.59
	S60.59,55.84,60.59,50S55.84,39.41,50,39.41z M50,0C22.39,0,0,22.39,0,50s22.39,50,50,50s50-22.39,50-50S77.61,0,50,0z M81.25,63.51
	c0,9.78-7.96,17.74-17.74,17.74H36.49c-9.78,0-17.74-7.96-17.74-17.74V36.49c0-9.78,7.96-17.74,17.74-17.74h27.02
	c9.78,0,17.74,7.96,17.74,17.74V63.51z"/>
</svg>
