<?xml version="1.0" encoding="utf-8"?>
<!-- Generator: Adobe Illustrator 24.0.1, SVG Export Plug-In . SVG Version: 6.00 Build 0)  -->
<svg version="1.1" id="Layer_1" xmlns="http://www.w3.org/2000/svg" xmlns:xlink="http://www.w3.org/1999/xlink" x="0px" y="0px"
	 viewBox="0 0 100 100" style="enable-background:new 0 0 100 100;" xml:space="preserve">
<style type="text/css">
	.st0{fill:#FFFFFF;}
</style>
<g>
	<g>
		<path class="st0" d="M97.01,58.79c0.51-2.81,0.77-5.67,0.77-8.52c0-26.19-21.31-47.51-47.5-47.51c-2.84,0-5.71,0.26-8.51,0.77
			C37.6,1.22,32.9,0,28.13,0C12.62,0,0,12.62,0,28.13c0,4.77,1.22,9.47,3.53,13.63c-0.51,2.81-0.77,5.67-0.77,8.51
			c0,26.19,21.31,47.5,47.51,47.5c2.85,0,5.71-0.26,8.51-0.76c3.69,2.01,8.16,2.99,13.63,2.99C87.88,100,100,87.88,100,72.41
			C100,66.94,99.02,62.48,97.01,58.79z M51.14,83.42c-20.57,0-26.7-9.36-28.52-14.93c-1.42-4.36-0.48-7.16,0.57-8.74
			c1.63-2.48,4.27-3.34,5.57-3.46c2.4-0.22,6.82,0.5,8.16,4.59c0.48,1.45,3.25,8.72,11.11,9.51c6.96,0.7,11.54-2.39,12.86-5.56
			c0.42-1,0.34-2.06-0.22-3.05c-0.84-1.47-3.48-4.12-11.79-5.31C32.33,54.1,22.85,46.53,22.85,35.7c0-13.72,15.41-18.58,28.61-18.58
			c14.01,0,21.2,8.12,22.79,11.25c1.42,2.79,1.53,6.5,0.28,9.21c-0.93,2.01-2.48,3.32-4.51,3.81c-6.17,1.49-9.11-2.9-12.04-8.35
			c-1.11-2.06-3.42-2.87-5.17-3.18c-4.46-0.8-9.72,0.67-11.83,2.54c-0.78,0.69-1.64,1.72-1.36,2.75c0.24,0.89,2.01,3.99,14.52,6.42
			c16.96,3.3,24.53,9.65,24.53,20.59C78.65,72.62,68.36,83.42,51.14,83.42z"/>
	</g>
</g>
</svg>
