<?xml version="1.0" encoding="utf-8"?>
<!-- Generator: Adobe Illustrator 24.0.1, SVG Export Plug-In . SVG Version: 6.00 Build 0)  -->
<svg version="1.1" id="Layer_1" xmlns="http://www.w3.org/2000/svg" xmlns:xlink="http://www.w3.org/1999/xlink" x="0px" y="0px"
	 viewBox="0 0 100 100" style="enable-background:new 0 0 100 100;" xml:space="preserve">
<path d="M50,0C22.39,0,0,22.39,0,50s22.39,50,50,50s50-22.39,50-50S77.61,0,50,0z M57.51,54.21c-1.59,10.58-9.56,16.27-19.8,16.27
	C26.22,70.48,17,61.49,17,50s9.22-20.48,20.71-20.48c5.58,0,10.47,1.59,14,5.01l-6.03,6.03c-1.93-2.05-4.78-3.07-7.97-3.07
	c-6.83,0-12.74,5.69-12.74,12.52s5.92,12.52,12.74,12.52c5.69,0,10.01-3.64,11.27-9.1H37.48v-7.97h20.03
	c0.23,1.37,0.34,3.07,0.34,4.55S57.74,52.84,57.51,54.21z M83,51.14h-6.83v6.83h-5.69v-6.83h-6.83v-5.69h6.83v-6.83h5.69v6.83H83
	V51.14z"/>
</svg>
