<?xml version="1.0" encoding="utf-8"?>
<!-- Generator: Adobe Illustrator 24.0.1, SVG Export Plug-In . SVG Version: 6.00 Build 0)  -->
<svg version="1.1" id="Layer_1" xmlns="http://www.w3.org/2000/svg" xmlns:xlink="http://www.w3.org/1999/xlink" x="0px" y="0px"
	 viewBox="0 0 100 100" style="enable-background:new 0 0 100 100;" xml:space="preserve">
<style type="text/css">
	.st0{fill-rule:evenodd;clip-rule:evenodd;}
</style>
<path class="st0" d="M0,50c0,27.61,22.39,50,50,50c27.61,0,50-22.39,50-50c0-27.61-22.39-50-50-50C22.39,0,0,22.39,0,50z
	 M40.91,64.55c0,1.34,0.69,2.57,1.8,3.21c1.11,0.63,2.45,0.56,3.5-0.18l20.45-14.55c0.95-0.67,1.52-1.81,1.52-3.03
	s-0.57-2.35-1.52-3.03L46.21,32.43c-1.05-0.74-2.39-0.81-3.5-0.18c-1.11,0.63-1.8,1.87-1.8,3.21V64.55z"/>
</svg>
