<?xml version="1.0" encoding="utf-8"?>
<!-- Generator: Adobe Illustrator 24.0.1, SVG Export Plug-In . SVG Version: 6.00 Build 0)  -->
<svg version="1.1" id="Layer_1" xmlns="http://www.w3.org/2000/svg" xmlns:xlink="http://www.w3.org/1999/xlink" x="0px" y="0px"
	 viewBox="0 0 70 70" style="enable-background:new 0 0 70 70;" xml:space="preserve">
<style type="text/css">
	.st0{fill:none;stroke:#000000;stroke-linecap:round;stroke-linejoin:round;stroke-miterlimit:10;}
</style>
<g>
	<g>
		<path d="M61.13,49.37c1.58,0,2.87,1.29,2.87,2.87v9.4c0,1.58-1.29,2.87-2.87,2.87H8.87C7.29,64.51,6,63.22,6,61.64v-9.4
			c0-1.58,1.29-2.87,2.87-2.87H61.13 M61.13,48.37H8.87C6.73,48.37,5,50.1,5,52.24v9.4c0,2.14,1.73,3.87,3.87,3.87h52.27
			c2.14,0,3.87-1.73,3.87-3.87v-9.4C65,50.1,63.27,48.37,61.13,48.37L61.13,48.37z"/>
	</g>
	<g>
		<path class="st0" d="M60.01,39.15L34.89,27.1l3.07-6.41l25.12,12.05c0.89,0.43,1.27,1.5,0.84,2.39L62.4,38.3
			C61.97,39.2,60.9,39.58,60.01,39.15z"/>
		<path class="st0" d="M28.94,16.37l1.55,0.75l-3.07,6.41l-1.55-0.75c-0.89-0.43-1.27-1.5-0.84-2.39l1.52-3.17
			C26.97,16.31,28.05,15.94,28.94,16.37z"/>
		<path class="st0" d="M27.58,27.16L30,24.89l-1.43,4.2l2.76-2.73l0.17,1.72l2.98-0.15l3.87-8.07l-2.17-3c2-3.74,4.48-8.1,6.6-11.36
			c-3.38,0.9-7.04,3.65-10.2,7.69c-0.36,0.46-0.66,0.95-0.92,1.47L26.7,25.03l3.8-4.35L27.58,27.16z"/>
	</g>
	<path class="st0" d="M24.31,47.53c4.92,1.45,9.5,1.56,12.77,0.33c-3.61-1.42-8.16-3.53-11.97-5.41l-1.72-0.63l2.57,2.91l-4.11-1.67
		l2.13,2.54l-6.31-3.28l4.13,4.04l0.91,0.5C23.22,47.14,23.75,47.37,24.31,47.53z"/>
</g>
</svg>
