<?xml version="1.0" encoding="utf-8"?>
<!-- Generator: Adobe Illustrator 24.0.1, SVG Export Plug-In . SVG Version: 6.00 Build 0)  -->
<svg version="1.1" id="Layer_1" xmlns="http://www.w3.org/2000/svg" xmlns:xlink="http://www.w3.org/1999/xlink" x="0px" y="0px"
	 viewBox="0 0 100 100" style="enable-background:new 0 0 100 100;" xml:space="preserve">
<style type="text/css">
	.st0{fill:#FFFFFF;}
</style>
<g>
	<path class="st0" d="M56.51,59.09c-0.56,0.73-1.52,1.01-2.38,0.71c-2.19-0.77-9.65-3.89-13.73-11.76c-0.4-0.78-0.3-1.71,0.28-2.37
		l2.94-3.4l-3.38-7.85l-2.3-0.13c-0.03,0-0.06,0-0.09,0c-0.38,0-0.74,0.13-1.02,0.38c-0.94,0.82-2.6,2.51-3.08,4.66
		c-0.76,3.37,0.5,7.51,3.53,11.65c2,2.73,8.09,11.03,19.63,14.29c2.75,0.78,5.23,0.48,7.37-0.89c1.37-0.88,2.36-2.33,2.71-3.97
		l0.37-1.73l-7.82-3.57L56.51,59.09z"/>
	<path class="st0" d="M49.89,21.48c-15.66,0-28.41,12.71-28.41,28.33c0,5.51,1.54,10.82,4.45,15.35l1.04,1.62l-2.46,8.72l9.03-2.33
		l1.54,0.94c4.72,2.88,9.84,4.4,14.8,4.4c15.79,0,28.63-12.88,28.63-28.71C78.52,34.19,65.67,21.48,49.89,21.48z M69.79,59.2
		l-0.37,1.73c-0.49,2.29-1.88,4.31-3.8,5.54c-1.78,1.14-3.72,1.71-5.8,1.71c-1.15,0-2.34-0.17-3.58-0.52
		c-12.36-3.5-18.83-12.31-20.95-15.21c-3.47-4.73-4.87-9.58-3.95-13.66c0.64-2.84,2.7-4.97,3.87-5.99c0.8-0.69,1.83-1.04,2.88-0.98
		l2.32,0.13c0.93,0.05,1.74,0.62,2.11,1.48l3.38,7.91c0.36,0.85,0.21,1.86-0.4,2.56l-2.8,3.2c3.55,6.65,9.79,9.45,12,10.27
		l2.92-3.78c0.7-0.91,1.92-1.2,2.96-0.73l7.84,3.61C69.46,56.95,70.03,58.07,69.79,59.2z"/>
	<path class="st0" d="M50,0C22.39,0,0,22.39,0,50s22.39,50,50,50s50-22.39,50-50S77.61,0,50,0z M49.89,81
		c-5.42,0-10.98-1.65-16.09-4.77l-0.64-0.4l-12.19,3.14l3.32-11.79l-0.44-0.68C20.67,61.57,19,55.8,19,49.81
		C19,32.82,32.86,19,49.89,19C67.04,19,81,32.82,81,49.81C81,67.01,67.04,81,49.89,81z"/>
</g>
</svg>
