<?xml version="1.0" encoding="utf-8"?>
<!-- Generator: Adobe Illustrator 24.0.1, SVG Export Plug-In . SVG Version: 6.00 Build 0)  -->
<svg version="1.1" id="Layer_1" xmlns="http://www.w3.org/2000/svg" xmlns:xlink="http://www.w3.org/1999/xlink" x="0px" y="0px"
	 viewBox="0 0 100 100" style="enable-background:new 0 0 100 100;" xml:space="preserve">
<g id="Layer_1_1_">
</g>
<path d="M50,0C22.39,0,0,22.39,0,50s22.39,50,50,50s50-22.39,50-50S77.61,0,50,0z M55.09,66.02c-3.29,0-6.67-1.37-8.77-3.39
	c-0.69,2.71-1.81,7.13-2.13,8.3c-5.66,19.04-13.84,16.57-9.78-2.77c0.67-2.83,4.21-17.84,4.81-20.37
	c-2.81-6.25-0.51-16.88,7.27-17.06c3.72,0,6.22,2.73,6.22,6.8c0,2.38-0.92,5.36-1.89,8.52c-0.71,2.97-2.83,6.61-0.66,9.33
	c0.94,1.19,2.44,1.88,4.1,1.88c8.23-0.35,10.99-11.83,10.96-19.12c0-8.31-5.64-13.47-14.72-13.47c-11.44,0-17.61,8.81-17.61,17.11
	c0,2.79,0.71,4.94,2.25,6.75c0.84,0.99,1.15,1.68,0.77,3.1c-0.18,0.72-0.59,2.38-0.77,3.06c-0.38,1.59-1.96,2.3-3.38,1.69
	c-5.3-2.16-8.46-7.97-8.46-15.54c0-6.03,2.6-12.12,7.12-16.7c8.06-8.97,28.38-12.09,39.37-1.19C84,36.16,75.03,66.25,55.09,66.02z"
	/>
</svg>
