<?xml version="1.0" encoding="utf-8"?>
<!-- Generator: Adobe Illustrator 24.0.1, SVG Export Plug-In . SVG Version: 6.00 Build 0)  -->
<svg version="1.1" id="Layer_1" xmlns="http://www.w3.org/2000/svg" xmlns:xlink="http://www.w3.org/1999/xlink" x="0px" y="0px"
	 viewBox="0 0 100 100" style="enable-background:new 0 0 100 100;" xml:space="preserve">
<style type="text/css">
	.st0{fill:#FFFFFF;}
</style>
<path class="st0" d="M50,0C22.39,0,0,22.39,0,50s22.39,50,50,50s50-22.39,50-50S77.61,0,50,0z M79.45,35.69
	c-0.86,2.7-2.48,4.71-4.61,5.73v0.32c0,18.01-13.39,32.65-29.85,32.65c-9.2,0-16.68-1.61-20.01-4.29c-0.41-0.33-0.57-0.87-0.4-1.38
	c0.17-0.51,0.65-0.85,1.18-0.86c5.49-0.11,9-1.37,11.71-2.95c-5.27-0.63-8.45-3.14-10.15-7.92c-0.16-0.45-0.02-0.96,0.36-1.25
	c0.38-0.3,0.91-0.33,1.31-0.07c1.39,0.9,2.78,1.08,4.47,1.09c-3.49-2.14-6.79-5.73-8.03-10.1c-0.14-0.48,0.06-0.97,0.47-1.24
	c0.43-0.27,0.97-0.23,1.35,0.1c0.99,0.87,2.17,1.39,3.8,1.64c-3.67-3.66-5.89-9.11-2.75-15.18l0.6-1.16l0.9,0.95
	c5.78,6.07,11.12,8.84,20.78,10.71v-0.37c0-6.77,5.34-12.38,11.9-12.5c2.59-0.03,6.25,1.85,7.71,2.66c0.07,0.04,0.14,0.05,0.21,0.03
	c1.83-0.57,4.13-1.52,6.73-2.61c0.38-0.16,0.81-0.08,1.1,0.19c0.3,0.27,0.41,0.69,0.28,1.08c-0.42,1.31-1.23,2.69-2.32,4.01
	l1.85-0.64c0.39-0.14,0.82-0.04,1.12,0.25C79.47,34.88,79.57,35.3,79.45,35.69z"/>
</svg>
