<?xml version="1.0" encoding="utf-8"?>
<!-- Generator: Adobe Illustrator 24.0.1, SVG Export Plug-In . SVG Version: 6.00 Build 0)  -->
<svg version="1.1" id="Layer_1" xmlns="http://www.w3.org/2000/svg" xmlns:xlink="http://www.w3.org/1999/xlink" x="0px" y="0px"
	 viewBox="0 0 100 100" style="enable-background:new 0 0 100 100;" xml:space="preserve">
<path d="M50,0C22.39,0,0,22.39,0,50c0,27.61,22.39,50,50,50c27.61,0,50-22.39,50-50C100,22.39,77.61,0,50,0z M37.5,72.14
	c0,1.32-1.15,2.44-2.5,2.44h-6.67c-1.35,0-2.5-1.14-2.5-2.49V42.93c0-1.38,1.09-2.51,2.43-2.51H35c1.36,0,2.5,1.15,2.5,2.5V72.14z
	 M36.35,36.88c-1.23,1.2-2.88,1.88-4.55,1.88c-0.05,0-0.1,0-0.15,0c-1.67,0.04-3.38-0.65-4.64-1.89C25.72,35.6,25,33.89,25,32.08
	c0-1.78,0.7-3.45,1.97-4.71c1.27-1.26,2.95-1.95,4.73-1.95h0.01c1.77,0,3.44,0.7,4.7,1.97c1.26,1.27,1.96,2.95,1.96,4.72
	C38.37,33.92,37.65,35.61,36.35,36.88z M75,72.92c0,0.83-0.84,1.67-1.67,1.67H65c-0.83,0-1.67-0.84-1.67-1.67V55.05
	c0-1.53-0.37-2.64-1.13-3.4c-0.92-0.92-2.15-1.44-3.46-1.41c-2.56,0.03-4.57,2.17-4.57,4.88v17.96c0,0.88-0.88,1.5-1.67,1.5l-9.17,0
	c-0.79,0-1.67-0.62-1.67-1.5V41.99c0-0.88,0.9-1.56,1.67-1.56h8.33c0.82,0,1.67,0.84,1.67,1.67v1.15c2.01-2.28,5.12-3.65,8.35-3.65
	h1.76c6.48,0,11.56,5.19,11.56,11.82V72.92z"/>
</svg>
