<?xml version="1.0" encoding="utf-8"?>
<!-- Generator: Adobe Illustrator 24.0.1, SVG Export Plug-In . SVG Version: 6.00 Build 0)  -->
<svg version="1.1" id="Layer_1" xmlns="http://www.w3.org/2000/svg" xmlns:xlink="http://www.w3.org/1999/xlink" x="0px" y="0px"
	 viewBox="0 0 77.27 100" style="enable-background:new 0 0 77.27 100;" xml:space="preserve">
<style type="text/css">
	.st0{fill:#FFFFFF;}
</style>
<g>
	<polyline class="st0" points="35.3,58.97 35.3,58.97 35.3,58.97 	"/>
	<path class="st0" d="M42.15,54.16c-0.25,0.33-0.52,0.65-0.8,0.95c-0.28,0.31-0.58,0.61-0.88,0.9c-0.3,0.3-0.61,0.58-0.93,0.85
		c-0.63,0.55-1.3,1.05-2.01,1.45c-0.35,0.2-0.71,0.38-1.07,0.5c-0.35,0.12-0.71,0.17-0.92,0.1c-0.1-0.03-0.18-0.09-0.23-0.15
		l-0.02-0.03l0,0c0,0,0,0,0,0c0,0,0,0,0,0l0,0c0,0,0,0,0,0c0,0,0,0,0,0c-0.01-0.01-0.01-0.03-0.02-0.05
		c-0.01-0.05-0.02-0.12-0.03-0.2c-0.01-0.31,0.09-0.7,0.22-1.06c0.27-0.74,0.71-1.45,1.22-2.09c0.4-0.49,0.86-0.94,1.35-1.35
		c-0.02,0.05-0.04,0.1-0.06,0.16c-0.02,0.09-0.04,0.21-0.01,0.36c0.04,0.15,0.15,0.29,0.26,0.35c0.22,0.13,0.37,0.13,0.51,0.14
		c0.14,0.01,0.27,0,0.39-0.01c0.06,0,0.13-0.01,0.18-0.02l0.18-0.03c0.12-0.02,0.23-0.05,0.34-0.08c0.45-0.11,0.87-0.26,1.29-0.42
		c0.4-0.15,0.79-0.3,1.17-0.47C42.26,54.01,42.21,54.09,42.15,54.16 M38.73,54.29C38.73,54.29,38.73,54.28,38.73,54.29
		C38.73,54.3,38.73,54.3,38.73,54.29 M39.17,53.67c0.28-0.29,0.62-0.55,0.95-0.79c0.34-0.24,0.7-0.46,1.07-0.65
		c0.37-0.18,0.76-0.33,1.14-0.38c0.18-0.02,0.36-0.01,0.48,0.04c0.11,0.05,0.16,0.11,0.19,0.24c0.01,0.06,0.02,0.13,0.02,0.19
		c-0.76,0.41-1.51,0.81-2.27,1.18c-0.38,0.18-0.77,0.35-1.15,0.48c-0.1,0.03-0.19,0.06-0.29,0.09l-0.13,0.03
		c-0.06,0.01-0.1,0.02-0.15,0.03c-0.09,0.01-0.18,0.03-0.25,0.03c0.01-0.02,0.02-0.03,0.02-0.04C38.9,53.97,39.03,53.82,39.17,53.67
		 M52.58,50.66c-0.03-0.28-0.22-0.56-0.46-0.78c-0.24-0.22-0.53-0.35-0.8-0.43c-0.28-0.08-0.55-0.11-0.81-0.11
		c-0.52,0-0.99,0.09-1.44,0.22c-0.45,0.12-0.88,0.27-1.3,0.43c-0.84,0.32-1.64,0.71-2.42,1.1c-0.55,0.28-1.09,0.57-1.63,0.86
		c0-0.01-0.01-0.02-0.01-0.03c-0.05-0.14-0.13-0.29-0.25-0.42c-0.12-0.13-0.27-0.21-0.41-0.26c-0.3-0.1-0.57-0.08-0.81-0.04
		c-0.48,0.08-0.91,0.26-1.32,0.45c-0.41,0.19-0.8,0.42-1.17,0.67c-0.38,0.25-0.73,0.52-1.07,0.83c-0.01,0.01-0.01,0.01-0.02,0.02
		c-0.01-0.03-0.02-0.05-0.04-0.08c-0.11-0.15-0.32-0.19-0.47-0.08l-0.01,0c-4.19,2.43-8.37,4.89-12.67,7.04
		c-1.07,0.54-2.16,1.05-3.25,1.52c-1.09,0.46-2.2,0.89-3.31,1.2c-0.56,0.15-1.11,0.28-1.64,0.33c-1.2,0.12-1.95-0.05-1.95-2.46
		h-1.51c0,3.99,1.88,4.13,3.2,4.13c0.68,0,1.76-0.23,2.37-0.41c1.22-0.36,2.37-0.82,3.5-1.33c1.13-0.51,2.22-1.06,3.3-1.64
		c2.16-1.17,4.25-2.42,6.3-3.72c0.85-0.54,1.69-1.09,2.53-1.65c-0.19,0.31-0.36,0.63-0.51,0.97c-0.17,0.44-0.33,0.9-0.35,1.46
		c0,0.14,0.01,0.29,0.05,0.45c0.02,0.08,0.04,0.16,0.08,0.25c0.02,0.05,0.04,0.09,0.07,0.13l0.02,0.03l0.02,0.03l0.02,0.03
		c0.02,0.03,0.06,0.08,0.08,0.11c0.03,0.03,0.06,0.07,0.08,0.09c0.06,0.06,0.12,0.12,0.19,0.17c0.14,0.1,0.29,0.18,0.45,0.23
		c0.31,0.1,0.61,0.11,0.88,0.09c0.27-0.03,0.52-0.09,0.76-0.15c0.47-0.15,0.9-0.35,1.3-0.58c0.81-0.46,1.53-1,2.21-1.58
		c0.34-0.29,0.66-0.61,0.98-0.93c0.31-0.33,0.6-0.67,0.88-1.02c0.55-0.72,1.05-1.48,1.38-2.37c0.01-0.03,0.02-0.06,0.03-0.08
		l2.33-1.02c0.78-0.35,1.57-0.68,2.35-0.97c0.39-0.15,0.78-0.28,1.17-0.38c0.39-0.1,0.77-0.19,1.12-0.24
		c0.35-0.05,0.66-0.05,0.88,0.02c0.11,0.04,0.23,0.1,0.34,0.22c0.11,0.12,0.22,0.28,0.31,0.47l0.08,0.15
		c0.02,0.04,0.07,0.09,0.14,0.08C52.57,51.66,52.63,51.08,52.58,50.66"/>
	<path class="st0" d="M52.23,51.15c0.39-0.68,0.9-1.24,1.52-1.74c0.31-0.25,0.66-0.48,1.1-0.65c0.22-0.08,0.47-0.14,0.74-0.15
		c0.26-0.01,0.53,0.05,0.74,0.12c0.44,0.16,0.73,0.35,1.04,0.49c0.31,0.14,0.62,0.26,0.96,0.34c0.57,0.15,1.32,0.19,2.07,0.13
		c0.13-0.01,0.14,0.07,0.01,0.13c-0.68,0.26-1.49,0.47-2.16,0.48c-0.4,0-0.81-0.05-1.2-0.16c-0.39-0.1-0.76-0.25-1.03-0.31
		c-0.14-0.03-0.25-0.03-0.35-0.02c-0.11,0.01-0.22,0.05-0.34,0.11c-0.25,0.11-0.52,0.29-0.8,0.49c-0.56,0.39-1.17,0.74-1.8,1.21
		c-0.13,0.1-0.25,0.19-0.39,0.11c-0.08-0.04-0.14-0.11-0.14-0.2C52.16,51.44,52.18,51.23,52.23,51.15"/>
	<path class="st0" d="M12.23,65.15c-2.33,0.25-4.7,0.37-7.09-0.04c-0.6-0.11-1.19-0.25-1.78-0.47c-0.59-0.21-1.17-0.49-1.71-0.9
		c-0.54-0.4-1.03-0.95-1.33-1.63c-0.15-0.34-0.25-0.7-0.29-1.07L0,60.77c0-0.1,0-0.2,0.01-0.31c0.01-0.2,0.05-0.39,0.1-0.57
		c0.21-0.73,0.57-1.3,0.96-1.82c0.39-0.52,0.82-0.97,1.26-1.4c0.89-0.85,1.84-1.59,2.81-2.29c0.97-0.69,1.97-1.33,2.99-1.94
		c1.02-0.61,2.04-1.19,3.09-1.74c2.08-1.1,4.21-2.12,6.35-3.07c2.15-0.95,4.32-1.84,6.5-2.69c4.37-1.69,8.81-3.2,13.3-4.55
		c4.49-1.35,9.02-2.54,13.61-3.51c2.29-0.49,4.6-0.92,6.92-1.29c2.32-0.37,4.65-0.66,7-0.83c1.18-0.08,2.35-0.14,3.54-0.14
		c1.18,0,2.37,0.04,3.57,0.18c0.6,0.07,1.19,0.17,1.79,0.31c0.6,0.14,1.19,0.33,1.77,0.63c0.29,0.15,0.57,0.33,0.84,0.56
		c0.26,0.23,0.5,0.52,0.66,0.87c0.16,0.34,0.23,0.73,0.21,1.09c-0.01,0.36-0.1,0.7-0.22,1.01c-0.12,0.31-0.27,0.6-0.44,0.87
		c-0.17,0.27-0.35,0.52-0.55,0.76c-0.39,0.47-0.82,0.91-1.27,1.3c-0.89,0.8-1.85,1.5-2.82,2.16c-1.95,1.32-4,2.45-6.09,3.51
		c-0.09,0.05-0.41,0.03-0.46-0.06c-0.04-0.08,0.2-0.2,0.28-0.25l0,0c0.98-0.63,1.97-1.24,2.93-1.89c0.97-0.64,1.92-1.3,2.85-1.98
		c0.92-0.69,1.83-1.4,2.65-2.19c0.41-0.39,0.8-0.8,1.14-1.23c0.17-0.22,0.33-0.44,0.46-0.66c0.14-0.23,0.25-0.46,0.33-0.69
		c0.08-0.23,0.13-0.46,0.14-0.69c0.01-0.22-0.03-0.42-0.12-0.6c-0.17-0.37-0.56-0.67-1.02-0.9c-0.46-0.23-0.99-0.39-1.53-0.51
		c-0.54-0.12-1.1-0.2-1.66-0.26c-1.13-0.11-2.28-0.14-3.42-0.11c-1.15,0.02-2.3,0.1-3.45,0.2c-4.6,0.43-9.18,1.26-13.71,2.27
		c-4.53,1.03-9.01,2.24-13.45,3.62c-4.44,1.37-8.83,2.9-13.14,4.61c-4.31,1.71-8.55,3.6-12.63,5.76c-2.03,1.09-4.03,2.24-5.89,3.54
		c-0.93,0.65-1.83,1.34-2.63,2.1c-0.4,0.38-0.77,0.77-1.09,1.18c-0.31,0.41-0.57,0.84-0.69,1.23c-0.03,0.1-0.05,0.19-0.07,0.28
		c-0.01,0.05-0.01,0.09-0.02,0.13l-0.01,0.16c0,0.21,0.03,0.42,0.09,0.62c0.13,0.41,0.39,0.8,0.75,1.13
		c0.36,0.34,0.81,0.62,1.3,0.86c0.49,0.24,1.01,0.43,1.55,0.59c1.08,0.31,2.22,0.5,3.37,0.61c1.15,0.11,2.31,0.16,3.48,0.16h0
		c0.07,0,0.25,0.08,0.25,0.15C12.46,65.11,12.29,65.14,12.23,65.15"/>
	<path class="st0" d="M13.79,45.37v15.3c0,0.41,1.51,0.35,1.51,0V44.7C14.81,44.91,14.3,45.14,13.79,45.37
		C13.8,45.37,13.8,45.37,13.79,45.37"/>
	<polyline class="st0" points="35.3,58.97 35.3,58.97 35.3,58.97 	"/>
	<path class="st0" d="M62.66,48.45c-0.5,0.2-0.4,0.41-0.3,0.66c0.1,0.26,0.59,0.3,1.09,0.1c0.5-0.2,0.33-0.4,0.23-0.65
		C63.58,48.29,63.16,48.25,62.66,48.45"/>
	<path class="st0" d="M14.1,41.92l1.21-0.53L15.24,1.51h46.97l0.07,30.4c0.51-0.05,1.02-0.1,1.51-0.14L63.73,0h-50l0.07,42.05
		C13.89,42.01,13.99,41.96,14.1,41.92"/>
	<path class="st0" d="M62.85,52.36L62.85,52.36c-0.19,0-0.38-0.01-0.57-0.04l-0.07,46.17H15.24l0.07-30.81
		c-0.48-0.1-1-0.27-1.51-0.55L13.73,100h50l0.07-47.74C63.48,52.32,63.16,52.36,62.85,52.36"/>
</g>
</svg>
