<?xml version="1.0" encoding="utf-8"?>
<!-- Generator: Adobe Illustrator 24.0.1, SVG Export Plug-In . SVG Version: 6.00 Build 0)  -->
<svg version="1.1" id="Layer_1" xmlns="http://www.w3.org/2000/svg" xmlns:xlink="http://www.w3.org/1999/xlink" x="0px" y="0px"
	 viewBox="0 0 800 318.43" style="enable-background:new 0 0 800 318.43;" xml:space="preserve">
<path d="M365.43,252.1c0,0,0,0,0.01,0.01C365.42,252.08,365.42,252.07,365.43,252.1"/>
<path d="M126.61,316.08c-24.09,2.55-48.62,3.85-73.37-0.41c-6.18-1.1-12.37-2.62-18.47-4.82c-6.09-2.22-12.16-5.08-17.75-9.29
	c-5.58-4.12-10.68-9.79-13.79-16.83c-1.55-3.5-2.57-7.29-3-11.12l-0.22-2.88c-0.03-1.06-0.01-2.11,0.05-3.15
	c0.12-2.08,0.51-4.07,1.02-5.95c2.13-7.56,5.94-13.5,9.92-18.87c4.03-5.35,8.47-10.06,13.06-14.5c9.2-8.83,19.04-16.48,29.12-23.68
	c10.07-7.19,20.42-13.83,30.93-20.12c10.52-6.3,21.16-12.3,31.96-17.99c21.57-11.42,43.55-21.9,65.78-31.75
	c22.23-9.85,44.69-19.1,67.33-27.85c45.28-17.51,91.25-33.11,137.7-47.06c46.45-13.94,93.4-26.29,140.87-36.38
	c23.73-5.06,47.61-9.57,71.61-13.35c24.01-3.78,48.17-6.79,72.5-8.56c12.17-0.88,24.38-1.44,36.64-1.5
	c12.26-0.03,24.57,0.39,36.92,1.85c6.18,0.73,12.37,1.73,18.54,3.22c6.16,1.5,12.34,3.44,18.34,6.52c2.99,1.57,5.94,3.42,8.66,5.84
	c2.7,2.39,5.18,5.39,6.83,8.97c1.67,3.55,2.39,7.6,2.18,11.31c-0.15,3.73-1.01,7.26-2.24,10.5c-1.22,3.26-2.81,6.23-4.57,8.99
	c-1.75,2.79-3.68,5.38-5.72,7.83c-4.08,4.9-8.47,9.37-13.11,13.5c-9.24,8.26-19.1,15.55-29.2,22.38
	c-20.23,13.62-41.45,25.39-63.01,36.38c-0.94,0.48-4.28,0.29-4.76-0.65c-0.46-0.87,2.04-2.12,2.86-2.64l0.02-0.01
	c10.17-6.47,20.39-12.84,30.37-19.56c10.03-6.61,19.89-13.46,29.51-20.55c9.53-7.18,18.93-14.53,27.38-22.66
	c4.21-4.07,8.25-8.27,11.76-12.73c1.76-2.23,3.39-4.52,4.79-6.87c1.42-2.34,2.62-4.74,3.46-7.15c0.85-2.41,1.37-4.81,1.42-7.11
	c0.08-2.28-0.36-4.32-1.27-6.22c-1.79-3.79-5.82-6.98-10.58-9.34c-4.78-2.36-10.22-4.02-15.79-5.26c-5.59-1.25-11.36-2.1-17.18-2.7
	c-11.67-1.17-23.55-1.4-35.43-1.17c-11.9,0.25-23.82,1-35.73,2.05c-47.65,4.39-95.03,13.01-141.9,23.54
	c-46.87,10.64-93.33,23.25-139.28,37.45c-45.93,14.22-91.37,30.07-136.02,47.76c-44.62,17.72-88.54,37.28-130.72,59.68
	c-21.04,11.25-41.7,23.19-61.02,36.64c-9.62,6.74-18.9,13.89-27.18,21.7c-4.12,3.92-7.99,7.99-11.25,12.24
	c-3.25,4.21-5.89,8.71-7.09,12.78c-0.32,1.01-0.53,1.98-0.73,2.9c-0.08,0.47-0.14,0.91-0.19,1.36l-0.05,1.63
	c-0.01,2.18,0.31,4.33,0.97,6.43c1.28,4.19,3.97,8.23,7.74,11.7c3.72,3.51,8.39,6.44,13.41,8.89c5.03,2.45,10.46,4.44,16.04,6.06
	c11.18,3.25,22.96,5.15,34.84,6.36c11.9,1.17,23.94,1.66,35.99,1.67h0.01c0.72,0,2.57,0.8,2.57,1.51
	C129.04,315.66,127.26,316,126.61,316.08"/>
<path d="M625.18,156.11c-7.81,0.57-15.51,0.19-21.43-1.35c-3.48-0.86-6.73-2.07-9.91-3.56c-3.22-1.45-6.23-3.41-10.75-5.08
	c-2.23-0.74-4.95-1.34-7.7-1.26c-2.74,0.08-5.35,0.72-7.62,1.51c-4.55,1.72-8.11,4.15-11.35,6.7c-4.63,3.82-8.69,7.9-12.1,12.55
	c-0.45-2.75-2.37-5.5-4.71-7.6c-2.45-2.24-5.46-3.65-8.32-4.43c-2.88-0.82-5.67-1.13-8.34-1.1c-5.34-0.04-10.24,0.94-14.9,2.25
	c-4.67,1.27-9.12,2.75-13.45,4.49c-8.71,3.33-16.93,7.37-25.09,11.35c-5.68,2.95-11.28,5.92-16.86,8.93
	c-0.03-0.11-0.06-0.22-0.1-0.32c-0.5-1.48-1.32-2.99-2.55-4.3c-1.19-1.29-2.74-2.21-4.27-2.71c-3.09-1.01-5.87-0.79-8.39-0.39
	c-5.02,0.88-9.4,2.72-13.65,4.69c-4.22,2.02-8.28,4.35-12.14,6.93c-3.88,2.55-7.56,5.38-11.1,8.64c-0.08,0.07-0.16,0.15-0.23,0.22
	c-0.11-0.28-0.22-0.53-0.4-0.79c-1.13-1.56-3.29-1.93-4.86-0.86l-0.05,0.03c-43.41,25.18-86.63,50.67-131.2,72.85
	c-11.11,5.55-22.34,10.86-33.69,15.71c-11.34,4.72-22.79,9.26-34.28,12.46c-5.74,1.58-11.47,2.93-17.01,3.46
	c-12.46,1.19-20.22-0.55-20.22-25.46c0-0.01,0-0.01,0-0.02V104.33c-5.21,2.27-10.41,4.57-15.6,6.93c-0.03,0.01-0.06,0.02-0.08,0.03
	v158.36c0,0,0,0,0,0.01h0c0,41.3,19.43,42.71,33.1,42.71c7.02,0,18.18-2.41,24.54-4.24c12.63-3.72,24.58-8.49,36.23-13.81
	c11.64-5.29,22.98-11,34.19-16.95c22.32-12.06,44-25.01,65.27-38.56c8.79-5.6,17.49-11.33,26.15-17.11
	c-1.97,3.19-3.75,6.54-5.28,10.07c-1.82,4.54-3.44,9.31-3.59,15.09c-0.02,1.43,0.1,2.98,0.48,4.69c0.18,0.83,0.45,1.7,0.84,2.61
	c0.21,0.46,0.4,0.91,0.69,1.37l0.2,0.36l0.23,0.32l0.22,0.36c0.22,0.32,0.6,0.79,0.86,1.1c0.29,0.36,0.57,0.69,0.87,0.98
	c0.61,0.65,1.27,1.21,1.98,1.76c1.41,1.04,3,1.85,4.62,2.39c3.21,1.04,6.3,1.16,9.13,0.94c2.79-0.29,5.39-0.89,7.82-1.6
	c4.89-1.53,9.32-3.6,13.48-5.95c8.34-4.72,15.84-10.32,22.93-16.35c3.49-3.05,6.87-6.27,10.1-9.62c3.19-3.38,6.24-6.9,9.16-10.56
	c5.67-7.41,10.89-15.28,14.27-24.58c0.1-0.28,0.19-0.56,0.28-0.85l24.08-10.6c8.09-3.64,16.28-6.99,24.37-10.03
	c4.05-1.51,8.1-2.88,12.09-3.98c4.02-1.03,7.95-1.97,11.58-2.44c3.66-0.51,6.81-0.53,9.14,0.22c1.19,0.41,2.38,1.06,3.53,2.32
	c1.18,1.23,2.23,2.94,3.25,4.91l0.8,1.56c0.11,0.2,0.31,0.44,0.56,0.62c0.18,0.16,0.37,0.3,0.58,0.42c1.44,0.8,2.74-0.18,4.08-1.17
	c6.57-4.89,12.81-8.47,18.65-12.51c2.89-2.03,5.74-3.88,8.3-5.03c1.29-0.6,2.42-0.99,3.52-1.13c1.09-0.15,2.21-0.15,3.64,0.17
	c2.87,0.58,6.68,2.17,10.71,3.19c4.02,1.08,8.29,1.65,12.41,1.65c6.91-0.08,15.32-2.25,22.39-5
	C626.66,156.87,626.55,156.01,625.18,156.11z M400.98,203.58c0.01,0.2-0.04,0.22-0.03,0.1C400.96,203.65,400.97,203.6,400.98,203.58
	z M436.39,202.3c-2.58,3.41-5.34,6.71-8.28,9.86c-2.91,3.23-5.97,6.3-9.09,9.27c-3.07,3.08-6.3,5.97-9.58,8.79
	c-6.53,5.65-13.49,10.9-20.78,15.03c-3.63,2.08-7.33,3.95-11.02,5.18c-3.62,1.23-7.36,1.73-9.49,1.02c-1.04-0.3-1.84-0.92-2.4-1.58
	l-0.25-0.35l-0.02-0.04c-0.01,0-0.02-0.02-0.03-0.03c-0.02-0.02-0.01-0.01-0.02-0.02c-0.01-0.02-0.02-0.02-0.03-0.05
	c-0.06-0.1-0.13-0.32-0.2-0.52c-0.15-0.52-0.25-1.25-0.29-2.04c-0.08-3.22,0.91-7.24,2.3-11.03c2.78-7.72,7.35-15.02,12.66-21.65
	c4.15-5.13,8.86-9.79,14.03-13.98c-0.22,0.5-0.44,1.02-0.61,1.63c-0.24,0.94-0.44,2.21-0.06,3.69c0.39,1.53,1.59,2.97,2.66,3.65
	c2.23,1.33,3.84,1.35,5.29,1.48c1.46,0.08,2.77,0.02,4.03-0.12c0.61-0.03,1.31-0.13,1.85-0.19l1.9-0.31
	c1.21-0.23,2.41-0.51,3.56-0.79c4.65-1.17,9.04-2.73,13.36-4.32c4.11-1.53,8.15-3.15,12.15-4.82
	C437.51,200.82,436.96,201.57,436.39,202.3z M421.96,195.57c-3.96,1.9-7.96,3.62-11.93,4.96c-1.01,0.32-1.98,0.64-2.96,0.89
	l-1.39,0.37c-0.59,0.1-1,0.21-1.51,0.29c-0.92,0.14-1.85,0.25-2.63,0.24c0.08-0.15,0.17-0.31,0.25-0.46
	c0.93-1.52,2.32-3.08,3.77-4.57c2.93-3.01,6.38-5.72,9.89-8.19c3.56-2.49,7.28-4.78,11.12-6.68c3.82-1.87,7.89-3.41,11.77-3.91
	c1.89-0.23,3.75-0.13,4.94,0.39c1.16,0.51,1.63,1.13,1.96,2.47c0.14,0.62,0.19,1.29,0.17,2.01
	C437.6,187.59,429.83,191.83,421.96,195.57z"/>
<path d="M365.43,252.1c0,0,0,0,0.01,0.01C365.42,252.08,365.42,252.07,365.43,252.1"/>
<path d="M648.7,143.2c-5.18,2.05-4.13,4.19-3.08,6.79c1.06,2.65,6.1,3.07,11.27,0.99c5.22-2.09,3.45-4.13,2.37-6.78
	C658.21,141.59,653.88,141.11,648.7,143.2"/>
</svg>
